<svg width="17" height="20" viewBox="0 0 17 20" fill="none" xmlns="http://www.w3.org/2000/svg">
<circle cx="8.5" cy="8.5" r="8" stroke="black"/>
<path d="M9.072 3.92C8.24 3.92 7.49333 4.10133 6.832 4.464C6.18133 4.83733 5.66933 5.344 5.296 5.984C4.92267 6.63467 4.736 7.376 4.736 8.208C4.736 9.05067 4.92267 9.792 5.296 10.432C5.66933 11.072 6.18133 11.5733 6.832 11.936C7.49333 12.2987 8.24 12.48 9.072 12.48C9.78667 12.48 10.432 12.3413 11.008 12.064C11.584 11.7867 12.0373 11.3707 12.368 10.816L11.52 10.24C11.232 10.6667 10.8747 10.9813 10.448 11.184C10.0213 11.3867 9.55733 11.488 9.056 11.488C8.45867 11.488 7.92 11.3493 7.44 11.072C6.96 10.8053 6.58133 10.4267 6.304 9.936C6.02667 9.44533 5.888 8.86933 5.888 8.208C5.888 7.54667 6.02667 6.97067 6.304 6.48C6.58133 5.98933 6.96 5.60533 7.44 5.328C7.92 5.06133 8.45867 4.928 9.056 4.928C9.55733 4.928 10.0213 5.02933 10.448 5.232C10.8747 5.43467 11.232 5.744 11.52 6.16L12.368 5.584C12.0373 5.04 11.584 4.624 11.008 4.336C10.432 4.05867 9.78667 3.92 9.072 3.92Z" fill="black"/>
</svg>
