<svg width="100" height="50" viewBox="0 0 100 50" fill="none" xmlns="http://www.w3.org/2000/svg">
<path fill-rule="evenodd" clip-rule="evenodd" d="M58.066 6.30531C58.0661 9.77327 58.0918 13.176 58.123 13.867L58.1797 15.1234L58.6247 15.1704C58.8695 15.1963 62.5869 15.2588 66.8856 15.3095C75.085 15.406 77.2713 15.4856 78.0559 15.716C79.5834 16.1644 81.6248 17.7512 82.8842 19.469C83.1519 19.8341 83.6444 20.6213 83.9787 21.2184L84.5866 22.3041L84.6425 33.6078C84.6732 39.8249 84.7227 45.9369 84.7525 47.1903L84.8067 49.469H92.4034H100L99.9462 47.9867C99.9166 47.1715 99.8666 41.0686 99.835 34.4248L99.7775 22.3451L88.702 11.1726L77.6265 0H67.8461H58.0656L58.066 6.30531ZM95.3499 0.123274C93.4426 0.553717 92.1555 2.45009 92.4532 4.39106C92.777 6.50186 94.6796 7.94655 96.7137 7.62602C98.3752 7.36425 99.6218 6.1185 99.9066 4.4354C100.167 2.89938 99.3298 1.1854 97.9822 0.493363C97.0745 0.0270796 96.2742 -0.0853982 95.3499 0.123274ZM16.2409 7.90637V15.4588L22.5932 15.5222C26.0869 15.5572 30.3404 15.6196 32.0452 15.6608C35.0672 15.7341 35.1636 15.7419 35.8872 15.9744C38.4145 16.7863 40.6542 18.8133 41.8208 21.3442C42.221 22.2127 42.3949 22.8535 42.5242 23.9381C42.5859 24.4556 42.6376 29.0962 42.6718 37.1903L42.7242 49.646H50.2203H57.7164L57.7117 36.0398L57.7071 22.4336L46.7545 11.3938L35.802 0.353982H26.0214H16.2409V7.90637ZM97.5328 0.917876C98.1883 1.25088 98.7796 1.86177 99.0762 2.51239C99.292 2.98566 99.3228 3.15796 99.3228 3.89381C99.3228 4.64133 99.2955 4.7885 99.077 5.22124C98.7395 5.88956 98.1374 6.48637 97.4987 6.78549C97.0318 7.00425 96.8617 7.0354 96.1357 7.0354C95.3981 7.0354 95.2529 7.00779 94.826 6.78628C93.769 6.23805 93.0775 5.20027 93.009 4.05938C92.9176 2.53655 93.7299 1.3385 95.2577 0.742655C95.4573 0.664867 95.8332 0.630973 96.3103 0.647788C96.9131 0.669027 97.1427 0.719734 97.5328 0.917876ZM94.9133 3.80531V5.66372H95.2189H95.5245V4.95575V4.24779L95.8956 4.24805L96.2667 4.24823L96.616 4.93389C96.9493 5.58823 96.9802 5.62071 97.2927 5.6469C97.4728 5.66204 97.6201 5.65903 97.6201 5.64018C97.6201 5.62133 97.4448 5.27628 97.2305 4.87345L96.8409 4.14106L97.1432 3.85212C97.4166 3.59071 97.4455 3.5169 97.4455 3.0777C97.4455 2.23239 96.9901 1.94832 95.6336 1.94743L94.9133 1.9469V3.80531ZM96.7406 2.71106C96.8401 2.83929 96.9216 3.0131 96.9216 3.09735C96.9216 3.18159 96.8401 3.3554 96.7406 3.48363C96.5815 3.68867 96.4972 3.71681 96.042 3.71681H95.5245V3.09735V2.47788H96.042C96.4972 2.47788 96.5815 2.50602 96.7406 2.71106ZM0 32.8319V50H7.94582H15.8916V32.8319V15.6637H7.94582H0V32.8319Z" fill="#EC3025"/>
</svg>
